<?xml version="1.0" encoding="utf-8"?>
<!-- Generator: Adobe Illustrator 22.0.1, SVG Export Plug-In . SVG Version: 6.00 Build 0)  -->
<svg version="1.1" id="Layer_1" xmlns="http://www.w3.org/2000/svg" xmlns:xlink="http://www.w3.org/1999/xlink" x="0px" y="0px"
	 viewBox="0 0 24 24" style="enable-background:new 0 0 24 24;" xml:space="preserve">
<path d="M12,2.3c5.3,0,9.7,4.3,9.7,9.7s-4.3,9.7-9.7,9.7S2.3,17.3,2.3,12S6.7,2.3,12,2.3 M12,0C5.4,0,0,5.4,0,12s5.4,12,12,12
	s12-5.4,12-12S18.6,0,12,0L12,0z"/>
<g>
	<path d="M22.5,17.7h-5.6c-1.7,0-2.6-0.8-2.8-2.3c-0.1,0.8-0.4,1.3-0.9,1.7c-0.5,0.4-1.3,0.6-2.3,0.6c-1.2,0-2.3-0.4-3.4-1.3
		c-1.1-0.9-1.7-2-1.7-3.2v-2.3c0-1.3,0.6-2.3,1.7-3.2c1.1-0.9,2.4-1.3,3.9-1.3h5.6v8c0,0.8,0.5,1.1,1.4,1.1h2.8 M14.1,8.6h-2.8
		c-0.8,0-1.4,0.2-2,0.7c-0.6,0.4-0.8,1-0.8,1.6v2.3c0,0.6,0.3,1.2,0.8,1.6c0.5,0.4,1.2,0.7,2,0.7c0.8,0,1.4-0.2,2-0.7
		c0.5-0.4,0.8-1,0.8-1.6V8.6z"/>
</g>
</svg>
